<svg height="512" viewBox="0 0 64 64" width="512" xmlns="http://www.w3.org/2000/svg"><g id="Fill_Outline" data-name="Fill Outline"><g id="Stroke_copy" data-name="Stroke copy"><g><rect fill="#f89c8d" height="44" rx="4" width="58" x="3" y="17"/><path d="m7 21h24v14h-24z" fill="#f8664f"/><path d="m7 21v14h24v-14zm22 10h-10a8 8 0 0 1 -8-8h14a4 4 0 0 1 4 4z" fill="#cc5144"/><path d="m7 39h24v18h-24z" fill="#e9f1f2"/><g fill="#d0d8da"><path d="m31 40.17v2.81l-9.91 5.02-1.53-1.29z"/><path d="m27.93 39-10.16 6.68-1.63-1.15 7.5-5.53z"/><path d="m7 39v18h24v-18zm22 12a3 3 0 0 1 -3 3c-.09 0-.175-.019-.263-.027a1.992 1.992 0 0 1 -3.583-.2 2.971 2.971 0 0 1 -3.154-.552l-.024.021a2.989 2.989 0 0 1 -4.652 2.247 1.992 1.992 0 0 1 -3.324-1.489c0-.061.013-.118.018-.178a2.972 2.972 0 0 1 -1.8-3.932 1.974 1.974 0 0 1 -.218-.89 2 2 0 0 1 1.231-1.846 3.009 3.009 0 0 1 -.207-.912 2.99 2.99 0 1 1 4.593-3.682 1.99 1.99 0 0 1 1.383-.56 1.905 1.905 0 0 1 .263.027 1.993 1.993 0 1 1 3.047 2.473c.024.021.051.038.073.06a2.989 2.989 0 0 1 2.617-1.56c.061 0 .118.014.178.018a2.992 2.992 0 1 1 5.026 3 1.982 1.982 0 0 1 1.284 3.3 2.986 2.986 0 0 1 .512 1.682z"/></g><path d="m35 21h22v36h-22z" fill="#f8664f"/><path d="m35 21v36h22v-36zm20 30h-1a13 13 0 0 1 -13-13v-15h11a3 3 0 0 1 3 3z" fill="#cc5144"/><g><circle cx="40.5" cy="41.5" fill="#7ab92d" r="2.5"/><path d="m38.246 32.97a1.069 1.069 0 0 0 1.326-1.318l-.492-1.752a1.071 1.071 0 0 1 1.72-1.119 1.07 1.07 0 0 0 1.751-.9l-.185-2.572a1.071 1.071 0 0 1 1.4-1.095l3.172 1.033a1.071 1.071 0 0 1 .687 1.35l-1.225 3.735-4.068 8.007-4.943-3.081a1.246 1.246 0 0 1 .854-2.288z" fill="#5ba006"/><path d="m44 42-3.606 1.546a2 2 0 0 0 -.322 3.5l2.928 1.954 2-6z" fill="#a1d51c"/><path d="m51.908 43.7a2.963 2.963 0 0 0 .092-.7 3 3 0 1 0 -4.908 2.3 2.963 2.963 0 0 0 -.092.7 3 3 0 1 0 4.908-2.3z" fill="#f89c8d"/><circle cx="49" cy="29" fill="#7ab92d" r="3"/><path d="m52 37c0-5.523-6-10-6-10s-6 4.477-6 10c0 3.277 2.109 6.176 3.826 8-1.717 1.824-3.826 4.723-3.826 8a13.414 13.414 0 0 1 12 0c0-3.277-2.109-6.176-3.827-8 1.718-1.824 3.827-4.723 3.827-8z" fill="#84d2f4"/><path d="m52 53a13.386 13.386 0 0 0 -12 0c0-3.28 2.11-6.18 3.83-8-1.72-1.82-3.83-4.72-3.83-8 0-5.52 6-10 6-10a17 17 0 0 1 1.5 1.32c-1.78 1.71-4.5 4.96-4.5 8.68a11.375 11.375 0 0 0 2.86 6.9 1.678 1.678 0 0 1 -.09 2.22 1.665 1.665 0 0 0 -.46 1.16 1.7 1.7 0 0 0 1.7 1.72h4a9.269 9.269 0 0 1 .99 4z" fill="#57b7eb"/><path d="m46 27s-4.9 3.671-5.834 8.462a7.974 7.974 0 0 0 11.668 0c-.934-4.791-5.834-8.462-5.834-8.462z" fill="#e9f1f2"/><path d="m43 37a2.954 2.954 0 0 0 .02.42 8.076 8.076 0 0 1 -2.85-1.96c.93-4.79 5.83-8.46 5.83-8.46a17 17 0 0 1 1.5 1.32c-1.78 1.71-4.5 4.96-4.5 8.68z" fill="#d0d8da"/></g><g><circle cx="15" cy="28" fill="#7ab92d" r="3"/><path d="m18 28a3 3 0 1 1 -3.87-2.87 3.1 3.1 0 0 0 -.13.87 2.929 2.929 0 0 0 1.02 2.24.974.974 0 0 1 -.02-.24 3 3 0 0 1 1.5-2.6 3 3 0 0 1 1.5 2.6z" fill="#5ba006"/><circle cx="19" cy="28" fill="#a1d51c" r="3"/><path d="m22 28a3 3 0 1 1 -3.87-2.87 3.1 3.1 0 0 0 -.13.87 2.929 2.929 0 0 0 1.02 2.24.974.974 0 0 1 -.02-.24 3 3 0 0 1 1.5-2.6 3 3 0 0 1 1.5 2.6z" fill="#7ab92d"/><circle cx="23" cy="28" fill="#c4f236" r="3"/><path d="m25.87 28.87a3 3 0 1 1 -3.74-3.74 3.1 3.1 0 0 0 -.13.87 3 3 0 0 0 3 3 3.1 3.1 0 0 0 .87-.13z" fill="#a1d51c"/></g><g><path d="m54 10.341-32.905 37.659-1.533-1.285 31.374-38.945z" fill="#f9e109"/><path d="m47.272 5.294-29.498 40.384-1.638-1.147 27.86-41.531z" fill="#f9e109"/><g fill="#fcbc04"><path d="m54 10.34-32.91 37.66-1.53-1.29 1.23-1.53a2.016 2.016 0 0 0 1.62-.69l30.58-35z"/><path d="m47.27 5.29-29.5 40.39-1.63-1.15 1.1-1.63a2.023 2.023 0 0 0 1.71-.84l27.35-37.45z"/></g></g><path d="m60.64 58.64a3.988 3.988 0 0 1 -3.64 2.36h-50a4 4 0 0 1 -4-4v-36a3.988 3.988 0 0 1 2.36-3.64 3.931 3.931 0 0 0 -.36 1.64v36a4 4 0 0 0 4 4h50a3.931 3.931 0 0 0 1.64-.36z" fill="#f8664f"/></g></g><g id="Outline_copy" data-name="Outline copy"><g fill="#464a51"><path d="m57 16h-6.617l4.37-5a1 1 0 0 0 -.11-1.424l-3.065-2.576a.982.982 0 0 0 -.739-.229 1 1 0 0 0 -.682.368l-31.373 38.948a1 1 0 0 0 .136 1.394l1.532 1.286a1 1 0 0 0 1.4-.108l16.248-18.606c.009.039 0 .078.013.116l.49 1.75-.07.093a1.021 1.021 0 0 0 -.133-.03 2.248 2.248 0 0 0 -1.544 4.126l2.171 1.356c.015.281.032.561.072.835a3.483 3.483 0 0 0 -.71 5.984 2.98 2.98 0 0 0 1.121 3.6l.693.464a10.317 10.317 0 0 0 -1.203 4.653 1 1 0 0 0 1.447.9 12.473 12.473 0 0 1 11.106 0 1 1 0 0 0 1.447-.9 9.793 9.793 0 0 0 -.772-3.693 3.967 3.967 0 0 0 .754-5.958 3.488 3.488 0 0 0 .018-.349 3.961 3.961 0 0 0 -.761-2.332 9.785 9.785 0 0 0 .761-3.668 10.552 10.552 0 0 0 -1.374-4.99 3.982 3.982 0 0 0 -3.326-6.94 2.025 2.025 0 0 0 -1.054-.77l-3.177-1.043h-.019l4.586-5.257h8.364a3 3 0 0 1 3 3v23a1 1 0 0 0 2 0v-23a5.006 5.006 0 0 0 -5-5zm-36.014 30.6-.03-.026 30.118-37.382 1.5 1.259zm25.014-18.307c1.212 1.05 3.9 3.672 4.739 6.837a6.942 6.942 0 0 1 -9.479 0c.84-3.157 3.53-5.785 4.74-6.837zm-5.428 3.366a2.038 2.038 0 0 0 -.04-.279l-.49-1.75.117-.074a2.078 2.078 0 0 0 1.515.444 16.654 16.654 0 0 0 -1.101 1.659zm-2.754 2.457a.22.22 0 0 1 .236-.163 2.05 2.05 0 0 0 1.551-.238 10.39 10.39 0 0 0 -.41 1.494l-1.276-.8a.22.22 0 0 1 -.1-.293zm1.8 6.2a12.953 12.953 0 0 0 .973 2.063l-.591.25c-.093.04-.168.105-.256.153a1.5 1.5 0 0 1 -.744-1.282 1.475 1.475 0 0 1 .619-1.189zm1.006 5.907a.985.985 0 0 1 -.441-.928.97.97 0 0 1 .6-.822l.941-.405c.249.328.5.644.753.937a18.972 18.972 0 0 0 -1.252 1.621zm8.626 4.753-.685-1.408a1 1 0 1 0 -1.8.875l.092.19c-.287-.017-.573-.036-.86-.036s-.574.019-.86.036l.092-.19a1 1 0 1 0 -1.8-.875l-.686 1.408a14.567 14.567 0 0 0 -1.565.443 13.079 13.079 0 0 1 3.371-5.729 1 1 0 0 0 0-1.37c-1.529-1.624-3.313-4.09-3.515-6.818a8.852 8.852 0 0 0 3.966 1.44v2.058a1 1 0 0 0 2 0v-2.058a8.848 8.848 0 0 0 3.96-1.442c-.2 2.728-1.986 5.194-3.514 6.818a1 1 0 0 0 0 1.37 13.079 13.079 0 0 1 3.371 5.729 14.519 14.519 0 0 0 -1.566-.446zm2.019-6.5a1.992 1.992 0 0 1 .731 1.524 1.959 1.959 0 0 1 -.682 1.475 17.844 17.844 0 0 0 -1.798-2.475 18.4 18.4 0 0 0 1.48-1.969 2.274 2.274 0 0 1 -.061.449 1 1 0 0 0 .331.989zm-.269-15.476a1.963 1.963 0 0 1 -.473 1.264 20.429 20.429 0 0 0 -2.606-2.934 1.983 1.983 0 0 1 3.079 1.67zm-5.054-2.991a.986.986 0 0 0 -.544.19 19.206 19.206 0 0 0 -1.857 1.648c0-.014 0-.027 0-.041l-.19-2.57.091-.076zm-4.412 1.991-.1.014a2.057 2.057 0 0 0 -1.139-.466l1.126-1.289z"/><path d="m61 47a1 1 0 0 0 -1 1v9a3 3 0 0 1 -3 3h-50a3 3 0 0 1 -3-3v-36a3 3 0 0 1 3-3h23.6a1 1 0 0 0 0-2h-23.6a5.006 5.006 0 0 0 -5 5v36a5.006 5.006 0 0 0 5 5h50a5.006 5.006 0 0 0 5-5v-9a1 1 0 0 0 -1-1z"/><path d="m31 20h-24a1 1 0 0 0 -1 1v14a1 1 0 0 0 1 1h11.529a1 1 0 0 0 0-2h-10.529v-12h22v.069l-3.195 4.762a3.946 3.946 0 0 0 -5.8-2.28 3.905 3.905 0 0 0 -4 0 4 4 0 0 0 -4.838 6.279 1 1 0 0 0 1.414-1.415 1.988 1.988 0 0 1 1.93-3.339 3.952 3.952 0 0 0 -.511 1.924 3.987 3.987 0 0 0 6.009 3.449 3.957 3.957 0 0 0 1.991.551c.124 0 .241-.026.363-.037l-4.05 6.037h-12.313a1 1 0 0 0 -1 1v18a1 1 0 0 0 1 1h24a1 1 0 0 0 1-1v-15a1 1 0 0 0 -2 0v14h-22v-16h9.972l-2.666 3.974a1 1 0 0 0 .256 1.377l1.638 1.149a1 1 0 0 0 1.381-.23l29.499-40.386a1 1 0 0 0 -.234-1.409l-3.278-2.294a1 1 0 0 0 -1.4.262l-4.774 7.112a1 1 0 0 0 1.661 1.114l4.2-6.265 1.606 1.124-28.316 38.772-.032-.023 20.313-30.286a1 1 0 1 0 -1.66-1.114l-4.824 7.192a.979.979 0 0 0 -.342-.069zm-14 8a2 2 0 0 1 2-2 1.98 1.98 0 0 1 .515.076 3.851 3.851 0 0 0 0 3.848 1.98 1.98 0 0 1 -.515.076 2 2 0 0 1 -2-2zm4.678 1.489-.334-.369a2 2 0 0 1 0-2.24l.334-.369a1.976 1.976 0 0 1 3.044.489h-.722a1 1 0 0 0 0 2h.722a1.976 1.976 0 0 1 -3.044.489z"/><path d="m35 37.086a1 1 0 0 0 -1 1v18.914a1 1 0 0 0 1 1h22a1 1 0 0 0 1-1v-36a1 1 0 0 0 -1-1h-8.314a1 1 0 0 0 0 2h7.314v34h-20v-17.914a1 1 0 0 0 -1-1z"/><circle cx="45" cy="33" r="1"/><circle cx="22" cy="53" r="1"/><circle cx="12" cy="48" r="1"/><circle cx="27" cy="53" r="1"/><circle cx="28" cy="46" r="1"/><circle cx="16" cy="48" r="1"/><path d="m24.293 48.293-1 1a1 1 0 1 0 1.414 1.414l1-1a1 1 0 0 0 -1.414-1.414z"/><path d="m11.293 51.293-1 1a1 1 0 1 0 1.414 1.414l1-1a1 1 0 0 0 -1.414-1.414z"/><path d="m15.293 52.707 1 1a1 1 0 0 0 1.414-1.414l-1-1a1 1 0 0 0 -1.414 1.414z"/><path d="m13 43a1 1 0 0 0 -2 0v1a1 1 0 0 0 2 0z"/></g></g></g></svg>