<svg id="Layer_1" enable-background="new 0 0 256 256" height="512" viewBox="0 0 256 256" width="512" xmlns="http://www.w3.org/2000/svg"><g><circle cx="128" cy="140.545" fill="#72c1e8" r="87.106"/><g fill="#4aa5c9"><path d="m169.8 91.79c-2.9-.97-6-1.49-9.22-1.49-13.665 0-25.507 9.479-28.49 22.83-2.08 9.338-10.36 16-19.96 16h-16.71c-16.08 0-29.13 13.01-29.19 29.08-1.6-5.62-2.46-11.54-2.46-17.67 0-15.81 5.71-30.28 15.18-41.46 4.64 6.35 10.94 10.43 16.59 10.77-.71-3.28.22-6.85 2.76-9.39 3.97-3.97 10.66-4.17 14.88.45 10.11-4.45 9.31-14.99 1.92-23.3 19.048-3.836 39.194.881 54.7 14.18z"/><path d="m179.79 119.48v24.74c0 22.07-17.96 40.03-40.03 40.03h-44.34c-10.59 0-19.21-8.62-19.21-19.21v-6.72c0-10.59 8.62-19.2 19.21-19.2h16.71c14.37 0 26.58-9.79 29.71-23.81 1.97-8.85 9.68-15.03 18.74-15.03 10.59 0 19.21 8.61 19.21 19.2z"/><path d="m192.23 140.54c0 35.48-28.76 64.23-64.23 64.23-13.12 0-25.32-3.93-35.48-10.68 2.073.197-1.072.14 47.24.14 27.62 0 50.01-22.39 50.01-50.01v-21.33c1.6 5.6 2.46 11.53 2.46 17.65z"/></g><path d="m128 221.314c-13.308 0-26.503-3.296-38.158-9.531-1.218-.651-1.676-2.166-1.025-3.384.652-1.218 2.168-1.675 3.384-1.024 10.932 5.848 23.312 8.939 35.8 8.939 41.943 0 75.769-33.817 75.769-75.769 0-20.272-7.872-39.31-22.166-53.604-.977-.977-.977-2.559 0-3.535.976-.977 2.56-.977 3.535 0 15.239 15.238 23.631 35.53 23.631 57.139-.001 44.705-36.055 80.769-80.77 80.769zm-46.917-14.968c-3.618-2.583-7.057-5.497-10.221-8.662-.977-.977-.977-2.559 0-3.535.976-.977 2.56-.977 3.535 0 2.97 2.97 6.197 5.704 9.591 8.127 1.124.803 1.384 2.364.582 3.487-.801 1.122-2.36 1.385-3.487.583z" fill="#c5e5ff"/><path d="m115.1 77.61c-3.82-4.31-9.42-8.02-16.19-9.97-2.91 5.28-4.3 11.01-4.38 16.28-6.28-.97-13.91.22-20.97 4.13 1.19 4.12 3.08 7.86 5.39 11.03 4.64 6.35 10.94 10.43 16.59 10.77-.71-3.28.22-6.85 2.76-9.39 3.97-3.97 10.66-4.17 14.88.45 10.11-4.45 9.31-14.99 1.92-23.3z" fill="#13bf6d"/><path d="m112.75 114.91c-3.99 3.99-10.45 3.99-14.45 0-1.44-1.45-2.36-3.21-2.76-5.06-.71-3.28.22-6.85 2.76-9.39 3.97-3.97 10.66-4.17 14.88.45 3.56 4.02 3.41 10.16-.43 14z" fill="#fc5d3d"/><path d="m179.79 119.48v24.74c0 22.07-17.96 40.03-40.03 40.03h-44.34c-10.59 0-19.21-8.62-19.21-19.21v-6.72c0-10.59 8.62-19.2 19.21-19.2h16.71c14.37 0 26.58-9.79 29.71-23.81 1.97-8.85 9.68-15.03 18.74-15.03 10.59 0 19.21 8.61 19.21 19.2z" fill="#f2e1d6"/><path d="m169.81 91.8s0-.01-.01-.01c-2.9-.97-6-1.49-9.22-1.49-13.665 0-25.507 9.479-28.49 22.83-2.08 9.338-10.36 16-19.96 16h-16.71c-16.08 0-29.13 13.01-29.19 29.08v6.83c0 15.14 11.52 27.58 26.28 29.05h.01c2.073.197-1.072.14 47.24.14 27.62 0 50.01-22.39 50.01-50.01v-24.74c0-12.89-8.36-23.83-19.96-27.68zm9.98 52.42c0 22.07-17.96 40.03-40.03 40.03h-44.34c-10.59 0-19.21-8.62-19.21-19.21v-6.72c0-10.59 8.62-19.2 19.21-19.2h16.71c14.37 0 26.58-9.79 29.71-23.81 1.97-8.85 9.68-15.03 18.74-15.03 10.59 0 19.21 8.61 19.21 19.2z" fill="#f2e1d6"/><path d="m179.79 119.48v24.74c0 22.07-17.96 40.03-40.03 40.03h-44.34c-10.59 0-19.21-8.62-19.21-19.21v-6.72c0-10.59 8.62-19.2 19.21-19.2h16.71c14.37 0 26.58-9.79 29.71-23.81 1.97-8.85 9.68-15.03 18.74-15.03 10.59 0 19.21 8.61 19.21 19.2z" fill="#b35034"/><circle cx="160.323" cy="121.936" fill="#f2e1d6" r="6.649"/><path d="m46.946 224.878c-4.288-1.417-8.716-2.655-11.202-13.364-2.29 9.864-5.958 11.632-11.202 13.364 8.552 2.826 9.842 7.505 11.202 13.364 2.344-10.1 6.22-11.718 11.202-13.364z" fill="#f0c020"/><path d="m192.131 31.122c-4.288-1.417-8.716-2.655-11.202-13.364-2.29 9.864-5.958 11.632-11.202 13.364 8.552 2.826 9.842 7.505 11.202 13.364 2.343-10.099 6.22-11.717 11.202-13.364z" fill="#f0c020"/><path d="m223.105 53.439c-4.288-1.417-8.716-2.655-11.202-13.364-2.29 9.864-5.958 11.632-11.202 13.364 8.552 2.826 9.842 7.505 11.202 13.364 2.343-10.1 6.22-11.718 11.202-13.364z" fill="#f0c020"/><path d="m232.25 97.354v50.983h18.498v-69.481c-10.216 0-18.498 8.282-18.498 18.498z" fill="#afafaf"/><path d="m99.786 65.292c-1.176-.436-2.478.087-3.06 1.136-2.535 4.591-4.087 9.633-4.55 14.729-6.488-.387-13.511 1.252-19.683 4.63-1.078.501-1.679 1.76-1.343 2.936 3.333 11.679 12.64 21.755 22.463 23.408.635 1.701 1.627 3.248 2.922 4.543 4.974 4.974 13.013 4.974 17.986 0 3.998-3.998 4.782-10.05 2.263-14.877 14.122-9.164 3.447-30.496-16.998-36.505zm13.787 14.435-3.677 7.887-6.447-15.571c4.195 2.013 7.627 4.741 10.124 7.684zm-14.748-5.781 3.538 8.543-5.1-1.872c.278-2.256.802-4.495 1.562-6.671zm1.449 22.181c-1.838-2.515-2.977-6.147-3.198-10.252l7.887 2.895 2.639 6.373c-2.616-.426-5.042-.051-7.328.984zm-8.192-9.964c.109 2.044.409 3.994.885 5.811l-12.488-4.225c3.858-1.281 7.849-1.841 11.603-1.586zm-14.35 5.936 6.721 2.273-4.127 2.344c-.958-1.418-1.831-2.96-2.594-4.617zm5.76 8.569 7.306-4.149 4.789 1.62c.199.313.406.616.62.91-2.054 2.216-3.188 4.979-3.374 7.769-3.096-.939-6.402-3.06-9.341-6.15zm27.494 12.472c-3.018 3.019-7.895 3.02-10.916-.001-2.996-2.995-3.04-7.873.001-10.914 2.951-2.952 7.993-3.191 11.252.36 2.687 3.045 2.54 7.678-.337 10.555zm3.051-15.526-1.546-3.734 4.308-9.24c2.378 5.056 1.935 9.95-2.762 12.974z"/><circle cx="131.48" cy="168.29" r="2.5"/><path d="m63.73 165.044c0 17.503 14.263 31.688 31.688 31.688h44.343c28.954 0 52.509-23.556 52.509-52.509v-24.74c0-17.473-14.215-31.688-31.688-31.688-14.957 0-27.675 10.196-30.929 24.795-1.862 8.353-9.159 14.045-17.52 14.045-15.203 0-17.168-.016-17.831.028-16.957.591-30.572 14.562-30.572 31.66zm67.75-4.254c1.38 0 2.5-1.12 2.5-2.5v-24.896c2.683-2.375 4.981-5.195 6.78-8.375v56.706c-1.233.033.613.025-6.78.025v-3.46c0-1.38-1.12-2.5-2.5-2.5-1.37 0-2.49 1.109-2.5 2.479v.021 3.46h-7.335v-41.513c2.591-.771 5.05-1.852 7.335-3.204v21.257c0 1.38 1.12 2.5 2.5 2.5zm14.28-49.037c2.811-5.44 8.428-8.976 14.822-8.976 9.212 0 16.706 7.494 16.706 16.706v24.74c0 18.65-13.678 34.16-31.528 37.041zm-36.446 74.997h7.331v4.982h-7.331zm-5 4.982h-7.338v-4.982h7.338zm17.331-4.982h7.335v4.982h-7.335zm-5-5h-7.331v-40.133h2.818c1.529 0 3.035-.106 4.512-.306v40.439zm-12.331 0h-7.338v-40.133h7.338zm-7.337-45.133v-4.982h7.338v4.982zm-5 44.773c-7.566-1.591-13.264-8.314-13.264-16.346v-6.721c0-8.032 5.699-14.754 13.264-16.346zm42.003 10.342v-4.982c7.706 0 5.445.006 6.78-.025v4.982c-1.479.03 1.264.025-6.78.025zm53.29-72.249v24.74c0 24.163-18.137 44.157-41.51 47.117v-5.021c20.618-2.925 36.528-20.683 36.528-42.095v-24.74c0-11.969-9.737-21.706-21.706-21.706-5.701 0-10.923 2.167-14.822 5.809v-6.342c4.257-2.831 9.361-4.449 14.822-4.449 14.716-.001 26.688 11.972 26.688 26.687zm-46.51-17.922v9.092c-.574 1.302-1.044 2.67-1.364 4.109-.954 4.282-2.848 8.12-5.416 11.354v-10.407c.211-.663.398-1.339.552-2.031 1.039-4.662 3.228-8.787 6.228-12.117zm-11.78 22.74v6.694c-2.218 1.674-4.68 3.029-7.335 3.979v-5.371c2.787-1.258 5.272-3.069 7.335-5.302zm-12.335 6.88v5.067c-1.472.235-2.977.369-4.512.369h-2.818v-4.982h2.818c1.544 0 3.049-.166 4.512-.454zm-47.915 27.142c0-13.549 10.151-24.764 23.247-26.459v5.029c-10.339 1.654-18.264 10.633-18.264 21.43v6.721c0 10.797 7.926 19.776 18.264 21.43v5.029c-13.095-1.695-23.247-12.91-23.247-26.459z"/><path d="m169.473 121.936c0-5.045-4.104-9.149-9.149-9.149s-9.149 4.104-9.149 9.149 4.104 9.149 9.149 9.149 9.149-4.105 9.149-9.149zm-9.15 4.149c-2.288 0-4.149-1.861-4.149-4.149s1.861-4.149 4.149-4.149 4.149 1.861 4.149 4.149-1.861 4.149-4.149 4.149z"/><path d="m217.61 140.54c0-49.461-40.087-89.601-89.61-89.601-35.859 0-67.776 21.24-81.99 53.4-.56 1.26.02 2.729 1.28 3.29 1.23.55 2.75-.05 3.29-1.271 13.55-30.63 43.94-50.42 77.42-50.42 46.77 0 84.589 37.834 84.61 84.601-.021 46.882-37.938 84.609-84.61 84.609-46.675 0-84.61-37.749-84.61-84.609 0-5.271.49-10.54 1.45-15.67.26-1.36-.64-2.67-1.99-2.92-1.35-.261-2.67.659-2.92 2-1.02 5.42-1.53 11-1.53 16.59 0 49.519 40.097 89.609 89.6 89.609 49.601.001 89.61-40.208 89.61-89.608z"/><path d="m42.4 113.97c-.41 1.31.33 2.72 1.65 3.13 1.394.408 2.729-.374 3.13-1.649.4-1.32-.33-2.721-1.65-3.131-1.3-.4-2.73.35-3.13 1.65z"/><path d="m33.14 210.909c-2.09 9.003-5.171 10.021-9.436 11.43-2.443.807-2.437 4.273 0 5.078 7.348 2.428 8.178 6.009 9.435 11.43.638 2.746 4.571 2.752 5.21 0 2.089-9.002 5.17-10.02 9.436-11.429 2.443-.808 2.437-4.273 0-5.078-4.071-1.35-7.291-2.192-9.436-11.43-.637-2.745-4.571-2.753-5.209-.001zm2.615 8.578c1.394 2.623 3.009 4.282 4.674 5.418-1.747 1.175-3.303 2.79-4.624 5.23-1.059-1.883-2.574-3.663-4.885-5.192 1.836-1.204 3.463-2.875 4.835-5.456z"/><path d="m178.324 45.091c.638 2.746 4.571 2.752 5.21 0 2.089-9.002 5.17-10.02 9.436-11.429 2.443-.807 2.437-4.273 0-5.078-4.071-1.349-7.291-2.192-9.436-11.43-.636-2.744-4.571-2.752-5.209 0-2.09 9.003-5.171 10.021-9.436 11.43-2.443.808-2.437 4.273 0 5.078 7.347 2.428 8.178 6.008 9.435 11.429zm2.615-19.36c1.394 2.623 3.009 4.282 4.674 5.418-1.747 1.175-3.303 2.79-4.624 5.23-1.059-1.883-2.574-3.663-4.885-5.192 1.836-1.203 3.464-2.874 4.835-5.456z"/><path d="m223.944 55.978c2.443-.807 2.437-4.273 0-5.078-4.071-1.349-7.291-2.192-9.436-11.43-.636-2.744-4.571-2.752-5.209 0-2.09 9.003-5.171 10.021-9.436 11.43-2.443.807-2.437 4.273 0 5.078 7.348 2.428 8.178 6.009 9.435 11.43.638 2.746 4.571 2.752 5.21 0 2.089-9.003 5.17-10.021 9.436-11.43zm-11.98 2.718c-1.059-1.883-2.574-3.663-4.885-5.192 1.836-1.204 3.464-2.875 4.835-5.456 1.394 2.623 3.009 4.282 4.674 5.418-1.748 1.176-3.304 2.79-4.624 5.23z"/><path d="m250.75 192.529c1.38 0 2.5-1.119 2.5-2.5v-41.689c0-7.954 0-58.773 0-69.48 0-1.358-1.091-2.5-2.5-2.5-11.58 0-21 9.42-21 21v6.95c0 1.38 1.12 2.5 2.5 2.5s2.5-1.12 2.5-2.5v-6.95c.01-7.93 5.69-14.569 13.5-15.81v64.29h-13.5v-21.53c0-1.38-1.12-2.5-2.5-2.5s-2.5 1.12-2.5 2.5v24.03c0 1.381 1.116 2.5 2.5 2.5h16v39.189c0 1.381 1.12 2.5 2.5 2.5z"/><path d="m2.75 80.609v.021 29.55c0 4.54 3.7 8.23 8.24 8.24h5.1v71.609c0 1.381 1.12 2.5 2.5 2.5s2.5-1.119 2.5-2.5v-71.609h5.11c4.54-.01 8.23-3.7 8.24-8.24v-29.55c0-1.38-1.13-2.5-2.5-2.5-1.38 0-2.5 1.12-2.5 2.5l-.01 29.55c0 1.78-1.45 3.23-3.23 3.24h-5.11v-32.79c0-1.38-1.12-2.5-2.5-2.5s-2.5 1.12-2.5 2.5v32.79h-5.1c-1.78-.01-3.23-1.46-3.24-3.24v-29.55c0-1.38-1.12-2.5-2.5-2.5-1.37 0-2.49 1.11-2.5 2.479z"/><circle cx="232.25" cy="114.31" r="2.5"/></g></svg>