<svg id="Layer_5" enable-background="new 0 0 64 64" height="512" viewBox="0 0 64 64" width="512" xmlns="http://www.w3.org/2000/svg"><g><g><path d="m49.71 25.68c2.58-.34 5.19-.56 9.46-.67.53 1.23.83 2.57.83 3.99 0 3.87-2.2 7.22-5.41 8.89-1.1-1.09-2.34-2.19-3.69-3.27-.42-.34-.84-.67-1.28-1-1.7-1.28-3.54-2.52-5.48-3.63-1.45-.84-2.96-1.61-4.5-2.28 3.3-.89 6.67-1.57 10.07-2.03z" fill="#e6e9ed"/><path d="m59.17 25.01c-4.27.11-6.88.33-9.46.67-3.4.46-6.77 1.14-10.07 2.03-1.14-.49-2.29-.94-3.46-1.31-1.3-.42-2.62-.76-3.93-1 8.24-2.9 16.94-4.4 25.75-4.4 1.07 0 1.92-.83 1.99-1.88 1.61 1.64 2.01 3.15 2.01 3.88 0 .55-.22 1.05-.59 1.41-.36.37-.86.59-1.41.59-.28 0-.55 0-.83.01z" fill="#fc6e51"/><path d="m26.59 14.82c3.11-1.13 6.3-1.82 9.41-1.82 14.63 0 21.17 3.24 23.99 6.11v.01c-.07 1.05-.92 1.88-1.99 1.88-8.81 0-17.51 1.5-25.75 4.4h-.01c-1.42-.26-2.84-.4-4.24-.4-1.19 0-2.33.02-3.42.06-9.4.36-14.96 2.17-18.2 4.19 2.6-3.33 7.11-7.4 12.43-10.64 2.46-1.49 5.09-2.81 7.78-3.79z" fill="#ff826e"/><path d="m4.83 37.01c7.69.22 13.65 1.12 19.44 2.68 6.58 1.78 12.93 4.43 18.87 7.89l.68.4c1.45.84 2.98 1.51 4.56 2.01-1.32.65-2.81 1.01-4.38 1.01h-30c-5.52 0-10-4.48-10-10 0-1.42.3-2.76.83-3.99z" fill="#e6e9ed"/><path d="m4.83 37.01c-.28-.01-.55-.01-.83-.01-.55 0-1.05-.22-1.41-.59-.37-.36-.59-.86-.59-1.41 0-.73.4-2.24 2.01-3.88.07 1.05.92 1.88 1.99 1.88 13.75 0 27.26 3.65 39.14 10.58l.68.4c3.39 1.98 7.25 3.02 11.18 3.02 1.13 0 2.16-.39 3-1.02v.02c0 2.76-2.24 5-5 5-2.26 0-4.49-.34-6.62-1.01-1.58-.5-3.11-1.17-4.56-2.01l-.68-.4c-5.94-3.46-12.29-6.11-18.87-7.89-5.79-1.56-11.75-2.46-19.44-2.68z" fill="#fc6e51"/><path d="m24.58 25.06c1.09-.04 2.23-.06 3.42-.06 1.4 0 2.82.14 4.24.4h.01c1.31.24 2.63.58 3.93 1 1.17.37 2.32.82 3.46 1.31 1.54.67 3.05 1.44 4.5 2.28 1.94 1.11 3.78 2.35 5.48 3.63.44.33.86.66 1.28 1 1.35 1.08 2.59 2.18 3.69 3.27 3.33 3.27 5.39 6.34 5.41 8.09-.84.63-1.87 1.02-3 1.02-3.93 0-7.79-1.04-11.18-3.02l-.68-.4c-11.88-6.93-25.39-10.58-39.14-10.58-1.07 0-1.92-.83-1.99-1.88v-.01c.61-.62 1.38-1.25 2.37-1.86 3.24-2.02 8.8-3.83 18.2-4.19z" fill="#ff826e"/></g><g><path d="m63 23c0-.449-.307-11-27-11-11.93 0-24.812 9.57-30.278 16.467-4.619 2.937-4.722 6.284-4.722 6.533 0 1.463 1.054 2.681 2.442 2.944-.287.988-.442 2.009-.442 3.056 0 6.065 4.935 11 11 11h30c1.555 0 3.049-.331 4.453-.956 2.119.624 4.322.956 6.547.956 3.309 0 6-2.691 6-6 0-1.791-1.822-4.745-4.816-7.915 2.995-2.035 4.816-5.402 4.816-9.085 0-1.047-.155-2.068-.441-3.056 1.387-.263 2.441-1.481 2.441-2.944zm-44.232-3.162c1.106.852 1.957 1.746 2.502 2.671l1.723-1.018c-.567-.96-1.371-1.879-2.388-2.748 1.897-1.078 3.877-2.029 5.897-2.797 1.853 1.16 4.498 3.297 4.498 6.054h2c0-3.022-2.142-5.344-4.14-6.855 2.386-.713 4.793-1.145 7.14-1.145.345 0 .667.008 1.003.012 1.404 1.13 2.997 2.873 2.997 4.988h2c0-1.7-.706-3.366-2.041-4.912 11.223.5 16.464 3.112 18.907 5.382-.168.314-.491.53-.866.53-8.817 0-17.504 1.472-25.829 4.366-1.392-.233-2.786-.366-4.171-.366-7.974 0-13.58.945-17.539 2.277 2.282-2.189 5.138-4.453 8.307-6.439zm23.478 10.228c-1.98 1.477-4.246 3.841-4.246 6.934h2c0-2.626 2.43-4.696 4.178-5.848 1.849 1.101 3.597 2.307 5.204 3.549-1.577 1.658-2.382 3.435-2.382 5.299h2c0-1.373.655-2.731 1.945-4.044 4.445 3.712 7.495 7.506 7.98 9.526-.595.336-1.25.518-1.925.518-3.749 0-7.441-.998-10.679-2.887l-.678-.396c-12.019-7.011-25.728-10.717-39.643-10.717-.375 0-.698-.216-.866-.53 2.286-2.123 7.017-4.547 16.807-5.261-1.268 1.511-1.941 3.134-1.941 4.791h2c0-2.088 1.547-3.808 2.946-4.944.979-.033 1.986-.056 3.054-.056 1.899 0 3.819.262 5.723.724-2.155 1.494-4.723 3.967-4.723 7.276h2c0-3.172 3.47-5.514 5.304-6.53 2.034.684 4.028 1.575 5.942 2.596zm1.754 19.934h-30c-4.963 0-9-4.037-9-9 0-1.027.178-2.023.513-2.975 13.04.258 25.845 3.841 37.123 10.419l.678.396c.664.387 1.349.728 2.045 1.047-.447.067-.898.113-1.359.113zm11 0c-3.749 0-7.441-.998-10.679-2.887l-.678-.396c-12.019-7.011-25.728-10.717-39.643-10.717-.552 0-1-.448-1-1 0-.027.066-.848.805-1.981.549.599 1.326.981 2.195.981 13.562 0 26.922 3.611 38.636 10.444l.678.396c3.542 2.067 7.583 3.16 11.686 3.16.536 0 1.06-.09 1.57-.231-.656 1.316-2.002 2.231-3.57 2.231zm-.257-13.374c-3.212-3.092-7.426-6.251-12.077-8.636 5.19-1.204 10.493-1.859 15.821-1.964.335.952.513 1.948.513 2.974 0 3.138-1.622 5.988-4.257 7.626zm5.257-12.626c-6.819 0-13.614.893-20.205 2.645-1.269-.538-2.562-1.004-3.866-1.395 7.16-2.154 14.567-3.25 22.071-3.25.869 0 1.646-.382 2.195-.981.739 1.133.805 1.954.805 1.981 0 .552-.448 1-1 1z"/><path d="m9 41c0-.281.023-.562.069-.835l-1.973-.332c-.064.383-.096.775-.096 1.167 0 3.859 3.141 7 7 7h2v-2h-2c-2.757 0-5-2.243-5-5z"/><path d="m18 46h2v2h-2z"/><path d="m22 46h2v2h-2z"/><path d="m48.5 27.793h2v1.414h-2z" transform="matrix(.707 -.707 .707 .707 -5.654 43.349)"/><path d="m52.793 30.5h1.414v2h-1.414z" transform="matrix(.707 -.707 .707 .707 -6.604 47.056)"/><path d="m54.5 27.793h2v1.414h-2z" transform="matrix(.707 -.707 .707 .707 -3.897 47.592)"/></g></g></svg>